<svg width="20" height="20" viewBox="0 0 20 20" fill="none" xmlns="http://www.w3.org/2000/svg">
<g id="award-05">
<path id="Icon" d="M5.94586 9.32423L2.77524 3.65051C2.41067 2.99812 2.22838 2.67193 2.2591 2.40485C2.2859 2.17184 2.40966 1.96091 2.59999 1.82385C2.81814 1.66675 3.19182 1.66675 3.93916 1.66675H5.80151C6.07926 1.66675 6.21814 1.66675 6.3427 1.70686C6.45292 1.74235 6.55454 1.80043 6.64107 1.87738C6.73885 1.96435 6.80934 2.084 6.95032 2.32331L10 7.50008L13.0497 2.32331C13.1906 2.084 13.2611 1.96435 13.3589 1.87738C13.4455 1.80043 13.5471 1.74235 13.6573 1.70686C13.7819 1.66675 13.9207 1.66675 14.1985 1.66675H16.0608C16.8082 1.66675 17.1818 1.66675 17.4 1.82385C17.5903 1.96091 17.7141 2.17184 17.7409 2.40485C17.7716 2.67193 17.5893 2.99812 17.2247 3.65051L14.0541 9.32423M8.75 11.6667L10 10.8334V15.0001M8.95833 15.0001H11.0417M13.8302 9.08658C15.9455 11.2019 15.9455 14.6316 13.8302 16.7469C11.7148 18.8622 8.28518 18.8622 6.16983 16.7469C4.0545 14.6316 4.0545 11.2019 6.16983 9.08658C8.28517 6.97125 11.7148 6.97125 13.8302 9.08658Z" stroke="#414651" stroke-width="1.66667" stroke-linecap="round" stroke-linejoin="round"/>
</g>
</svg>
