<svg width="20" height="20" viewBox="0 0 20 20" fill="none" xmlns="http://www.w3.org/2000/svg">
<path d="M5.00001 9.16658V12.4999M15 7.49992V10.8333M14.1667 3.33325C16.2073 3.33325 17.311 3.64555 17.8601 3.88779C17.9332 3.92005 17.9698 3.93618 18.0753 4.03689C18.1386 4.09727 18.2541 4.27441 18.2838 4.35666C18.3333 4.49387 18.3333 4.56887 18.3333 4.71887V13.6759C18.3333 14.4332 18.3333 14.8118 18.2198 15.0065C18.1043 15.2044 17.9928 15.2965 17.7766 15.3726C17.5641 15.4474 17.135 15.3649 16.2768 15.2C15.6762 15.0846 14.9638 14.9999 14.1667 14.9999C11.6667 14.9999 9.16667 16.6666 5.83334 16.6666C3.79275 16.6666 2.68906 16.3543 2.13991 16.112C2.06677 16.0798 2.03021 16.0637 1.92467 15.9629C1.86141 15.9026 1.74594 15.7254 1.71623 15.6432C1.66667 15.506 1.66667 15.431 1.66667 15.281L1.66667 6.32396C1.66667 5.56666 1.66667 5.188 1.78024 4.99337C1.89576 4.79539 2.00716 4.70335 2.22339 4.62726C2.43595 4.55246 2.86503 4.6349 3.7232 4.79979C4.32385 4.9152 5.03624 4.99992 5.83334 4.99992C8.33334 4.99992 10.8333 3.33325 14.1667 3.33325ZM12.0833 9.99992C12.0833 11.1505 11.1506 12.0833 10 12.0833C8.84941 12.0833 7.91667 11.1505 7.91667 9.99992C7.91667 8.84932 8.84941 7.91658 10 7.91658C11.1506 7.91658 12.0833 8.84932 12.0833 9.99992Z" stroke="#414651" stroke-width="1.66667" stroke-linecap="round" stroke-linejoin="round"/>
</svg>
