<svg width="20" height="20" viewBox="0 0 20 20" fill="none" xmlns="http://www.w3.org/2000/svg">
<g id="lightbulb-04">
<path id="Icon" d="M7.91667 18.3334H12.0833M8.33334 8.33342H11.6667M10 8.33342L10 13.3334M12.5 12.7721C14.4708 11.8358 15.8333 9.82708 15.8333 7.50008C15.8333 4.27842 13.2217 1.66675 10 1.66675C6.77834 1.66675 4.16667 4.27842 4.16667 7.50008C4.16667 9.82708 5.52922 11.8358 7.50001 12.7721V13.3334C7.50001 14.11 7.5 14.4983 7.62687 14.8046C7.79603 15.2129 8.12049 15.5374 8.52887 15.7065C8.83515 15.8334 9.22344 15.8334 10 15.8334C10.7766 15.8334 11.1649 15.8334 11.4711 15.7065C11.8795 15.5374 12.204 15.2129 12.3731 14.8046C12.5 14.4983 12.5 14.11 12.5 13.3334V12.7721Z" stroke="#414651" stroke-width="1.66667" stroke-linecap="round" stroke-linejoin="round"/>
</g>
</svg>
