<svg width="76" height="32" viewBox="0 0 76 32" fill="none" xmlns="http://www.w3.org/2000/svg">
<path d="M25.827 13.974C26.3446 14.394 27.3793 15.4285 28.8869 17.0033C28.9574 17.0708 29.0134 17.1522 29.0516 17.2425C29.0897 17.3328 29.1091 17.4302 29.1086 17.5284C29.092 17.7458 28.9934 17.9483 28.8332 18.0937C28.673 18.2391 28.4637 18.3161 28.2489 18.3087C28.1288 18.305 28.0106 18.2765 27.9017 18.2249C27.7928 18.1733 27.6954 18.0997 27.6155 18.0085L23.5499 13.7339C23.5951 14.606 23.6236 15.8187 23.6236 17.4518C23.6231 17.6863 23.5311 17.9111 23.3676 18.077C23.2041 18.2428 22.9825 18.3362 22.7513 18.3367C22.5221 18.3337 22.3032 18.2391 22.1423 18.0734C21.9813 17.9077 21.8913 17.6844 21.8917 17.4518V8.45554C21.879 8.34013 21.8921 8.2233 21.93 8.11372C21.9679 8.00414 22.0296 7.90461 22.1106 7.8225C22.1915 7.74038 22.2896 7.67779 22.3976 7.63935C22.5057 7.60091 22.6208 7.58761 22.7346 7.60044H25.884C28.1164 7.60044 29.4913 8.81539 29.4913 10.795C29.4913 13.0597 27.6585 13.9745 26.0912 13.9745L25.827 13.974ZM23.6218 9.18993V12.7145H25.7361C27.0518 12.7145 27.7612 11.9801 27.7612 10.9447C27.7612 9.90917 27.0518 9.18993 25.7361 9.18993H23.6218Z" fill="white"/>
<path d="M29.7195 14.3488C29.7121 13.8048 29.8142 13.2648 30.0196 12.7622C30.2251 12.2596 30.5295 11.8047 30.9143 11.4256C31.2991 11.0465 31.7561 10.7511 32.2574 10.5575C32.7587 10.3639 33.2936 10.2761 33.8295 10.2996C34.3654 10.2761 34.9004 10.3639 35.4016 10.5575C35.9029 10.7511 36.3599 11.0465 36.7447 11.4256C37.1295 11.8047 37.434 12.2596 37.6394 12.7622C37.8448 13.2648 37.947 13.8048 37.9395 14.3488C37.9482 14.8933 37.8469 15.4338 37.6419 15.937C37.4369 16.4402 37.1325 16.8956 36.7475 17.2749C36.3624 17.6543 35.9049 17.9496 35.4031 18.1428C34.9012 18.336 34.3657 18.4228 33.8295 18.3981C33.2933 18.4228 32.7579 18.3358 32.2561 18.1427C31.7543 17.9495 31.2967 17.6541 30.9117 17.2748C30.5267 16.8954 30.2223 16.4401 30.0172 15.9369C29.8122 15.4337 29.7109 14.8933 29.7195 14.3488ZM36.2985 14.3488C36.3068 14.0176 36.2485 13.6881 36.1274 13.3804C36.0063 13.0727 35.8247 12.7931 35.5938 12.5588C35.3629 12.3244 35.0874 12.1401 34.7841 12.0171C34.4808 11.8941 34.156 11.835 33.8295 11.8432C33.5033 11.8362 33.1791 11.8962 32.8764 12.0197C32.5736 12.1431 32.2986 12.3274 32.068 12.5615C31.8373 12.7956 31.6557 13.0747 31.5341 13.3818C31.4126 13.689 31.3535 14.0179 31.3605 14.3488C31.3536 14.6797 31.4128 15.0085 31.5344 15.3156C31.656 15.6226 31.8376 15.9016 32.0683 16.1356C32.299 16.3696 32.5739 16.5538 32.8766 16.6772C33.1792 16.8006 33.5034 16.8606 33.8295 16.8536C34.156 16.8618 34.4807 16.8027 34.7839 16.6797C35.0871 16.5568 35.3625 16.3726 35.5935 16.1383C35.8244 15.9041 36.0059 15.6247 36.1271 15.317C36.2483 15.0094 36.3066 14.68 36.2985 14.3488Z" fill="white"/>
<path d="M38.7829 8.48424C38.7832 8.21386 38.8892 7.95466 39.0777 7.76347C39.2662 7.57229 39.5217 7.46472 39.7882 7.46436C40.0524 7.46786 40.3045 7.57691 40.4899 7.76785C40.6754 7.95879 40.7791 8.21621 40.7786 8.48424C40.7786 8.75071 40.6742 9.00627 40.4885 9.19469C40.3028 9.38311 40.0508 9.48897 39.7882 9.48897C39.524 9.48948 39.2702 9.38426 39.082 9.19616C38.8938 9.00806 38.7863 8.75224 38.7829 8.48424ZM38.9308 11.2437C38.9272 11.1292 38.947 11.0151 38.989 10.9088C39.031 10.8024 39.0942 10.706 39.1748 10.6257C39.2554 10.5454 39.3515 10.4829 39.457 10.4422C39.5626 10.4014 39.6754 10.3833 39.7882 10.3891C39.8999 10.3851 40.0112 10.4045 40.1151 10.446C40.2191 10.4876 40.3136 10.5504 40.3926 10.6305C40.4716 10.7107 40.5335 10.8065 40.5745 10.912C40.6154 11.0175 40.6345 11.1304 40.6306 11.2437V17.4676C40.6352 17.5819 40.6167 17.696 40.5762 17.8027C40.5357 17.9095 40.4741 18.0067 40.3952 18.0884C40.3163 18.1701 40.2217 18.2345 40.1173 18.2778C40.0129 18.321 39.9009 18.3421 39.7882 18.3397C39.6745 18.3427 39.5614 18.3223 39.4557 18.2795C39.3501 18.2367 39.2541 18.1726 39.1737 18.091C39.0932 18.0094 39.03 17.9121 38.9879 17.8049C38.9457 17.6977 38.9256 17.583 38.9285 17.4676L38.9308 11.2437Z" fill="white"/>
<path d="M52.7673 10.7185C52.8301 10.6159 52.917 10.5307 53.0202 10.4705C53.1234 10.4103 53.2397 10.3769 53.3586 10.3734C53.5592 10.3722 53.7526 10.4495 53.8985 10.5892C54.0444 10.7288 54.1317 10.9201 54.1423 11.1233C54.1369 11.2685 54.091 11.4091 54.0097 11.5286L51.9841 14.6778L53.7582 17.0645C53.8764 17.2081 53.9441 17.3875 53.9504 17.5745C53.9308 17.7894 53.8307 17.9884 53.6708 18.1308C53.5109 18.2731 53.3034 18.3478 53.0908 18.3396C52.9548 18.3415 52.8204 18.3097 52.6993 18.2469C52.5781 18.1841 52.474 18.0923 52.3959 17.9793L51.0675 16.1181C49.7816 17.8728 48.9093 18.3975 47.4308 18.3975C46.9413 18.4176 46.4531 18.3357 45.9961 18.1568C45.5391 17.9779 45.1232 17.7058 44.774 17.3574C44.4249 17.0089 44.1499 16.5915 43.966 16.1309C43.7822 15.6703 43.6935 15.1764 43.7053 14.6796C43.7053 12.5949 45.2889 11.155 47.4308 11.155H47.476L45.5984 8.72558C45.4595 8.56735 45.3763 8.36686 45.3617 8.15551C45.3617 7.82549 45.6576 7.60059 46.1603 7.60059H49.7016C49.8808 7.60308 50.052 7.67642 50.1787 7.805C50.3055 7.93358 50.3778 8.10725 50.3802 8.28907C50.3813 8.47355 50.3107 8.65102 50.1836 8.783C50.0566 8.91498 49.8834 8.99083 49.7016 8.99409H47.7561L51.0082 13.3733L52.7673 10.7185ZM50.0916 14.7677L49.2772 13.6281C49.0895 13.3039 48.8217 13.0351 48.5001 12.8484C48.1785 12.6616 47.8144 12.5633 47.4439 12.5632C47.1677 12.5486 46.8915 12.5929 46.6331 12.6931C46.3748 12.7933 46.14 12.9472 45.9438 13.145C45.7476 13.3428 45.5943 13.58 45.494 13.8415C45.3936 14.1029 45.3482 14.3828 45.3608 14.6631C45.3561 14.9407 45.407 15.2164 45.5105 15.4735C45.6139 15.7306 45.7678 15.9636 45.9627 16.1586C46.1576 16.3535 46.3895 16.5063 46.6443 16.6076C46.8992 16.7089 47.1717 16.7566 47.4452 16.7478C48.48 16.7478 48.9677 16.388 50.0916 14.7682" fill="white"/>
<path d="M26.8764 31.8628C24.2893 31.8628 21.4806 30.2131 21.4806 26.4035C21.4806 22.5792 24.2893 20.9746 26.8764 20.9746C27.7735 20.9634 28.6603 21.169 29.4634 21.5745C29.5988 21.6449 29.712 21.7522 29.7904 21.8844C29.8688 22.0166 29.9093 22.1684 29.9073 22.3226C29.9141 22.4119 29.9028 22.5017 29.874 22.5864C29.8453 22.671 29.7997 22.7488 29.7401 22.8149C29.6805 22.881 29.6082 22.934 29.5276 22.9706C29.447 23.0072 29.3599 23.0266 29.2716 23.0276C29.1494 23.0288 29.0284 23.0032 28.9169 22.9524C28.2975 22.6954 27.6347 22.5631 26.9655 22.5627C25.0585 22.5627 23.2102 23.6877 23.2102 26.4021C23.2102 29.0868 25.0585 30.2577 26.98 30.2577C27.6396 30.2558 28.2924 30.1232 28.902 29.8675C29.0136 29.8168 29.1348 29.7911 29.2571 29.7922C29.3454 29.7935 29.4324 29.8131 29.5129 29.8498C29.5934 29.8864 29.6656 29.9395 29.725 30.0056C29.7845 30.0717 29.83 30.1495 29.8587 30.2341C29.8874 30.3188 29.8987 30.4085 29.8919 30.4977C29.8907 30.6534 29.8473 30.8057 29.7665 30.9379C29.6856 31.0702 29.5705 31.1774 29.4336 31.2477C28.6446 31.665 27.766 31.8764 26.8764 31.8628Z" fill="white"/>
<path d="M38.5434 24.7388V30.9628C38.5474 31.0762 38.5283 31.1892 38.4874 31.2947C38.4464 31.4003 38.3845 31.4962 38.3054 31.5764C38.2263 31.6566 38.1318 31.7195 38.0278 31.761C37.9237 31.8026 37.8123 31.8219 37.7005 31.8179C37.5878 31.8225 37.4754 31.8037 37.3701 31.7626C37.2649 31.7215 37.169 31.659 37.0885 31.5789C37.0079 31.4988 36.9444 31.4028 36.9018 31.2968C36.8593 31.1909 36.8385 31.0772 36.8409 30.9628V30.1366C36.4124 31.2014 35.3329 31.8762 33.9453 31.8762C31.6242 31.8762 30.1755 30.0613 30.1755 27.8118C30.1755 25.5021 31.6835 23.7773 34.0339 23.7773C34.5969 23.7684 35.1523 23.909 35.6451 24.1852C36.1379 24.4613 36.5509 24.8635 36.8432 25.3516V24.7365C36.8396 24.6221 36.8595 24.5081 36.9016 24.4019C36.9436 24.2956 37.0069 24.1994 37.0875 24.1191C37.1681 24.0389 37.2641 23.9765 37.3696 23.9359C37.4751 23.8952 37.5878 23.8771 37.7005 23.8828C37.8123 23.8788 37.9236 23.8981 38.0276 23.9396C38.1317 23.9811 38.2262 24.0439 38.3053 24.1241C38.3843 24.2043 38.4463 24.3001 38.4873 24.4056C38.5282 24.5112 38.5474 24.6241 38.5434 24.7375M36.8287 27.8301C36.8384 27.5004 36.7817 27.1722 36.6618 26.8656C36.542 26.5589 36.3616 26.2804 36.1317 26.0471C35.9019 25.8138 35.6275 25.6306 35.3253 25.5087C35.0232 25.3869 34.6996 25.3291 34.3746 25.3387C34.0468 25.3234 33.7194 25.3771 33.4131 25.4965C33.1067 25.6159 32.8281 25.7984 32.5947 26.0324C32.3613 26.2665 32.1783 26.5471 32.0571 26.8565C31.936 27.1659 31.8793 27.4974 31.8907 27.8301C31.878 28.1638 31.9337 28.4965 32.0542 28.8072C32.1747 29.1179 32.3574 29.3998 32.5908 29.6352C32.8242 29.8706 33.1032 30.0544 33.4102 30.1748C33.7171 30.2952 34.0454 30.3497 34.3742 30.3349C34.7002 30.3441 35.0247 30.2856 35.3276 30.1628C35.6305 30.04 35.9054 29.8556 36.1353 29.621C36.3653 29.3863 36.5454 29.1063 36.6647 28.7983C36.7839 28.4904 36.8397 28.1609 36.8287 27.8301Z" fill="white"/>
<path d="M41.8996 31.0223L39.4899 25.0554C39.444 24.9409 39.4189 24.819 39.4157 24.6955C39.4298 24.4655 39.5321 24.2503 39.7007 24.0959C39.8694 23.9415 40.0909 23.8602 40.3178 23.8694C40.4899 23.8656 40.6585 23.9194 40.7975 24.0224C40.9364 24.1254 41.0382 24.272 41.087 24.4394C42.5063 28.3092 42.7873 29.1487 43.0533 30.0336C43.275 29.0886 43.5415 28.2789 44.9309 24.4394C44.9825 24.2736 45.0849 24.1289 45.2233 24.0263C45.3616 23.9237 45.5287 23.8688 45.7001 23.8694C45.9219 23.8624 46.1378 23.9425 46.3029 24.093C46.468 24.2435 46.5695 24.4527 46.5864 24.6772C46.5871 24.79 46.567 24.9019 46.5271 25.0072L44.1912 31.0076C44.1035 31.2447 43.9456 31.4483 43.7392 31.5906C43.5327 31.7329 43.2879 31.8068 43.0384 31.8021C42.793 31.8045 42.5527 31.7312 42.3494 31.5918C42.1461 31.4524 41.9894 31.2537 41.9 31.0218" fill="white"/>
<path d="M54.9687 24.7388V30.9628C54.9727 31.0762 54.9536 31.1892 54.9127 31.2947C54.8717 31.4003 54.8098 31.4962 54.7307 31.5764C54.6516 31.6566 54.5571 31.7195 54.453 31.761C54.3489 31.8026 54.2376 31.8219 54.1258 31.8179C54.0131 31.8226 53.9006 31.8039 53.7953 31.7628C53.69 31.7217 53.5941 31.6592 53.5136 31.579C53.433 31.4989 53.3695 31.4029 53.327 31.2969C53.2844 31.1909 53.2637 31.0772 53.2662 30.9628V30.1366C52.8372 31.2014 51.7582 31.8762 50.3705 31.8762C48.0495 31.8762 46.6008 30.0613 46.6008 27.8118C46.6008 25.5021 48.1088 23.7773 50.4592 23.7773C51.0222 23.7683 51.5777 23.909 52.0706 24.1851C52.5634 24.4613 52.9765 24.8634 53.2689 25.3516V24.7365C53.2654 24.6221 53.2853 24.5081 53.3273 24.4019C53.3694 24.2956 53.4327 24.1994 53.5132 24.1191C53.5938 24.0389 53.6898 23.9765 53.7953 23.9359C53.9008 23.8952 54.0135 23.8771 54.1263 23.8828C54.238 23.8788 54.3493 23.8981 54.4534 23.9396C54.5574 23.9812 54.6519 24.044 54.731 24.1241C54.81 24.2043 54.872 24.3001 54.913 24.4057C54.9539 24.5112 54.9731 24.6241 54.9691 24.7375M53.2539 27.8302C53.2637 27.5004 53.2069 27.1722 53.0871 26.8656C52.9672 26.5589 52.7868 26.2804 52.557 26.0471C52.3272 25.8138 52.0528 25.6306 51.7506 25.5087C51.4484 25.3869 51.1249 25.3291 50.7999 25.3387C50.4721 25.3234 50.1447 25.3771 49.8383 25.4965C49.532 25.6159 49.2533 25.7984 49.02 26.0325C48.7866 26.2665 48.6036 26.5471 48.4824 26.8565C48.3612 27.1659 48.3046 27.4974 48.316 27.8302C48.3033 28.1638 48.3589 28.4965 48.4794 28.8072C48.5999 29.1179 48.7826 29.3998 49.016 29.6352C49.2495 29.8706 49.5285 30.0544 49.8354 30.1748C50.1424 30.2952 50.4706 30.3497 50.7994 30.3349C51.1255 30.3441 51.45 30.2856 51.7528 30.1628C52.0557 30.04 52.3306 29.8556 52.5606 29.621C52.7905 29.3863 52.9707 29.1063 53.0899 28.7983C53.2092 28.4904 53.265 28.1609 53.2539 27.8302Z" fill="white"/>
<path d="M56.3589 21.2587C56.3543 21.1444 56.3728 21.0303 56.4134 20.9235C56.4539 20.8167 56.5155 20.7195 56.5945 20.6378C56.6734 20.5561 56.7681 20.4917 56.8725 20.4485C56.977 20.4053 57.089 20.3842 57.2018 20.3866C57.3149 20.383 57.4275 20.4032 57.5325 20.446C57.6375 20.4887 57.7326 20.5531 57.8118 20.6351C57.8911 20.717 57.9527 20.8148 57.9927 20.9221C58.0328 21.0295 58.0505 21.1441 58.0447 21.2587V30.9471C58.0505 31.0618 58.0328 31.1764 57.9927 31.2837C57.9527 31.3911 57.8911 31.4888 57.8118 31.5708C57.7326 31.6527 57.6375 31.7171 57.5325 31.7599C57.4275 31.8027 57.3149 31.8229 57.2018 31.8192C57.089 31.8216 56.977 31.8006 56.8725 31.7574C56.7681 31.7142 56.6734 31.6498 56.5945 31.5681C56.5155 31.4864 56.4539 31.3891 56.4134 31.2823C56.3728 31.1755 56.3543 31.0615 56.3589 30.9471V21.2587Z" fill="white"/>
<path d="M59.2854 21.9642C59.2858 21.6938 59.3918 21.4346 59.5803 21.2435C59.7687 21.0523 60.0242 20.9447 60.2908 20.9443C60.5549 20.9478 60.8071 21.0569 60.9925 21.2478C61.1779 21.4388 61.2817 21.6962 61.2812 21.9642C61.2812 22.2307 61.1768 22.4862 60.9911 22.6747C60.8053 22.8631 60.5534 22.9689 60.2908 22.9689C60.0266 22.9695 59.7728 22.8642 59.5846 22.6761C59.3964 22.488 59.2889 22.2322 59.2854 21.9642ZM59.4334 24.7237C59.4297 24.6091 59.4495 24.4951 59.4915 24.3887C59.5335 24.2824 59.5968 24.186 59.6774 24.1057C59.7579 24.0254 59.854 23.9629 59.9596 23.9221C60.0652 23.8814 60.1779 23.8633 60.2908 23.869C60.4024 23.8651 60.5137 23.8844 60.6177 23.926C60.7217 23.9675 60.8161 24.0303 60.8952 24.1105C60.9742 24.1907 61.0361 24.2865 61.0771 24.392C61.118 24.4975 61.1371 24.6104 61.1332 24.7237V30.9476C61.1378 31.0619 61.1193 31.1759 61.0788 31.2827C61.0383 31.3895 60.9767 31.4867 60.8978 31.5684C60.8189 31.6501 60.7243 31.7145 60.6199 31.7577C60.5155 31.801 60.4035 31.822 60.2908 31.8197C60.177 31.8228 60.0639 31.8023 59.9582 31.7596C59.8525 31.7169 59.7565 31.6528 59.6761 31.5712C59.5957 31.4895 59.5325 31.3922 59.4903 31.285C59.4482 31.1778 59.4281 31.063 59.4311 30.9476L59.4334 24.7237Z" fill="white"/>
<path d="M69.087 28.3231H63.7794C63.8188 28.925 64.0913 29.4867 64.5374 29.8857C64.9835 30.2847 65.567 30.4885 66.1606 30.4528C66.5445 30.4626 66.9249 30.376 67.2678 30.2007C67.6108 30.0254 67.9057 29.7669 68.1265 29.448C68.1882 29.3535 68.2715 29.2755 68.3693 29.2206C68.4672 29.1658 68.5766 29.1358 68.6884 29.1332C68.8816 29.1454 69.0631 29.2308 69.1972 29.3724C69.3313 29.514 69.408 29.7016 69.4123 29.8979C69.4081 30.0808 69.34 30.2564 69.22 30.3931C68.8514 30.8607 68.383 31.2373 67.85 31.4945C67.3171 31.7517 66.7336 31.8828 66.1434 31.8779C63.8074 31.8779 62.1076 30.2715 62.1076 27.8434C62.0855 27.3113 62.1711 26.7803 62.3589 26.283C62.5468 25.7857 62.8331 25.3327 63.2 24.9519C63.567 24.5711 64.007 24.2705 64.4928 24.0687C64.9786 23.867 65.5 23.7682 66.0249 23.7786C68.1835 23.7786 69.6765 25.1886 69.9132 27.4083C69.9413 27.5276 69.9402 27.652 69.9099 27.7708C69.8795 27.8895 69.8209 27.9988 69.7391 28.0892C69.6573 28.1795 69.5549 28.2481 69.4409 28.2889C69.3269 28.3297 69.2047 28.3414 69.0852 28.3231M63.7943 27.1696H68.2735C68.2313 26.6043 67.972 26.0785 67.5515 25.7052C67.1309 25.3318 66.5827 25.1409 66.0249 25.1734C65.4703 25.1469 64.9273 25.3405 64.5109 25.7131C64.0946 26.0857 63.8376 26.6081 63.7943 27.1696Z" fill="white"/>
<path d="M75.297 24.6062C75.297 24.9064 75.1047 25.4012 74.3509 25.4163C73.2714 25.431 72.5918 26.0162 72.5918 27.0958V30.9513C72.5976 31.066 72.5799 31.1806 72.5398 31.2879C72.4998 31.3953 72.4382 31.493 72.359 31.575C72.2797 31.6569 72.1846 31.7213 72.0796 31.7641C71.9746 31.8068 71.862 31.827 71.7489 31.8234C71.6361 31.8258 71.5241 31.8048 71.4196 31.7616C71.3152 31.7184 71.2205 31.654 71.1416 31.5723C71.0626 31.4906 71.001 31.3933 70.9605 31.2865C70.9199 31.1797 70.9014 31.0656 70.906 30.9513V24.7242C70.902 24.6108 70.9211 24.4978 70.962 24.3922C71.003 24.2866 71.0649 24.1908 71.144 24.1105C71.2231 24.0303 71.3176 23.9675 71.4217 23.9259C71.5258 23.8844 71.6371 23.865 71.7489 23.8691C71.861 23.8637 71.973 23.8821 72.0776 23.9232C72.1823 23.9643 72.2773 24.0271 72.3567 24.1076C72.436 24.1881 72.4979 24.2845 72.5384 24.3907C72.5789 24.4969 72.5971 24.6105 72.5918 24.7242V25.0693C72.7598 24.7344 73.0127 24.4509 73.3245 24.2479C73.6363 24.045 73.9957 23.9299 74.3658 23.9145C75.0314 23.8548 75.2974 24.2445 75.2974 24.603" fill="white"/>
<path d="M6.97077 11.1898C7.09228 11.1898 7.21259 11.1655 7.32485 11.1183C7.4371 11.0711 7.5391 11.002 7.62502 10.9148C7.71094 10.8277 7.77909 10.7242 7.82559 10.6103C7.87208 10.4964 7.89602 10.3744 7.89602 10.2511C7.89602 10.1279 7.87208 10.0058 7.82559 9.89192C7.77909 9.77804 7.71094 9.67457 7.62502 9.58741C7.5391 9.50025 7.4371 9.43111 7.32485 9.38394C7.21259 9.33677 7.09228 9.31249 6.97077 9.31249C6.72538 9.31249 6.49004 9.41138 6.31653 9.58741C6.14301 9.76344 6.04553 10.0022 6.04553 10.2511C6.04553 10.5001 6.14301 10.7388 6.31653 10.9148C6.49004 11.0909 6.72538 11.1898 6.97077 11.1898ZM17.9733 17.0043V11.4886C17.9716 9.7118 17.2751 8.00829 16.0367 6.75192C14.7982 5.49556 13.119 4.78899 11.3676 4.78729H0L2.94087 7.77073V18.2578L5.87767 20.6748L8.08559 19.8184L10.5876 14.0497C10.6302 13.952 10.6533 13.8466 10.6558 13.7397C10.6582 13.6329 10.6398 13.5265 10.6017 13.4269C10.5636 13.3272 10.5065 13.2361 10.4337 13.1589C10.3608 13.0816 10.2737 13.0197 10.1772 12.9766C10.0809 12.9336 9.97714 12.9102 9.8719 12.9079C9.76666 12.9055 9.66199 12.9242 9.56388 12.9629C9.46577 13.0016 9.37614 13.0596 9.30011 13.1334C9.22408 13.2073 9.16314 13.2956 9.12078 13.3934L6.88843 18.5419L6.16995 18.8205L4.54478 17.483V7.09877L3.87064 6.41487H11.3676C12.614 6.41701 13.8147 6.89067 14.7351 7.74324C15.6555 8.59581 16.2294 9.76599 16.3445 11.025H14.1854C14.0801 11.0249 13.9758 11.0459 13.8785 11.0868C13.7812 11.1276 13.6928 11.1875 13.6184 11.2631C13.5439 11.3386 13.4849 11.4283 13.4446 11.527C13.4043 11.6257 13.3836 11.7315 13.3837 11.8383C13.3836 11.9451 13.4043 12.0509 13.4446 12.1496C13.4849 12.2483 13.5439 12.338 13.6184 12.4136C13.6928 12.4891 13.7812 12.549 13.8785 12.5899C13.9758 12.6307 14.0801 12.6517 14.1854 12.6517H16.3693V13.6192H15.3061C15.2008 13.6191 15.0965 13.6401 14.9992 13.681C14.9019 13.7218 14.8135 13.7818 14.7391 13.8573C14.6646 13.9328 14.6056 14.0225 14.5653 14.1212C14.525 14.2199 14.5043 14.3257 14.5044 14.4325C14.5044 14.6483 14.5889 14.8551 14.7392 15.0077C14.8896 15.1602 15.0935 15.2459 15.3061 15.2459H16.3693V16.2153H15.3061C15.2007 16.2153 15.0964 16.2364 14.9991 16.2773C14.9017 16.3183 14.8133 16.3783 14.7389 16.454C14.6645 16.5297 14.6055 16.6195 14.5653 16.7183C14.5251 16.8172 14.5046 16.9231 14.5048 17.03C14.5051 17.2454 14.5896 17.4519 14.7398 17.6042C14.8901 17.7564 15.0938 17.8419 15.3061 17.8419H16.2951C16.0994 19.0248 15.4971 20.0991 14.5952 20.8745C13.6933 21.65 12.5499 22.0765 11.3676 22.0784H8.08921C6.79278 22.0801 5.54994 22.6034 4.63331 23.5335C3.71668 24.4636 3.20111 25.7245 3.19967 27.0397C3.20123 28.3548 3.71693 29.6157 4.63366 30.5456C5.55039 31.4755 6.79327 31.9985 8.08966 32H11.9463C12.0515 32.0001 12.1558 31.9791 12.253 31.9383C12.3503 31.8974 12.4387 31.8376 12.5132 31.7621C12.5876 31.6866 12.6467 31.597 12.687 31.4983C12.7273 31.3997 12.748 31.2939 12.748 31.1871C12.7482 31.0802 12.7277 30.9742 12.6875 30.8754C12.6473 30.7765 12.5883 30.6867 12.5138 30.611C12.4393 30.5353 12.3509 30.4753 12.2535 30.4343C12.1561 30.3934 12.0517 30.3724 11.9463 30.3724H8.08966C7.21819 30.3714 6.38269 30.0198 5.76647 29.3947C5.15024 28.7695 4.80363 27.9219 4.80267 27.0378C4.80363 26.1538 5.15024 25.3062 5.76647 24.681C6.38269 24.0559 7.21819 23.7042 8.08966 23.7033H11.3676C13.119 23.7014 14.7981 22.9948 16.0365 21.7385C17.2749 20.4821 17.9715 18.7787 17.9733 17.002M12.3743 1.71755V0.813334C12.3743 0.706508 12.3536 0.600718 12.3134 0.502012C12.2731 0.403307 12.2141 0.313622 12.1396 0.238085C12.0651 0.162548 11.9767 0.102641 11.8794 0.0617886C11.7821 0.0209361 11.6779 -5.98178e-05 11.5726 5.18531e-07C11.4672 -0.000120181 11.3629 0.0208318 11.2655 0.0616572C11.1682 0.102483 11.0797 0.162381 11.0052 0.237924C10.9307 0.313467 10.8716 0.403172 10.8313 0.501907C10.791 0.600643 10.7703 0.70647 10.7704 0.813334V1.71984C10.7701 1.80603 10.7363 1.88862 10.6761 1.94952C10.616 2.01043 10.5346 2.04469 10.4496 2.04481H9.66371V0.813334C9.66377 0.706508 9.64307 0.600718 9.6028 0.502012C9.56253 0.403307 9.50348 0.313622 9.42902 0.238085C9.35456 0.162548 9.26616 0.102641 9.16886 0.0617886C9.07156 0.0209361 8.96728 -5.98178e-05 8.86198 5.18531e-07C8.75672 5.01507e-07 8.65248 0.0210404 8.55524 0.0619199C8.458 0.102799 8.36964 0.162717 8.29523 0.238248C8.22082 0.313779 8.16181 0.403444 8.12157 0.502119C8.08133 0.600795 8.06065 0.706547 8.0607 0.813334V2.04481H7.27436C7.18944 2.04469 7.10803 2.01041 7.04799 1.94949C6.98794 1.88858 6.95415 1.80599 6.95403 1.71984V0.813334C6.95409 0.706508 6.93339 0.600718 6.89313 0.502012C6.85286 0.403307 6.7938 0.313622 6.71934 0.238085C6.64489 0.162548 6.55648 0.102641 6.45918 0.0617886C6.36189 0.0209361 6.25761 -5.98178e-05 6.15231 5.18531e-07C6.04698 -5.97789e-05 5.94268 0.020933 5.84536 0.0617798C5.74804 0.102627 5.6596 0.162527 5.58511 0.238058C5.51061 0.313589 5.45152 0.403271 5.4112 0.501979C5.37088 0.600687 5.35013 0.706487 5.35013 0.813334V1.71984C5.35072 2.23726 5.5536 2.73331 5.91425 3.09919C6.2749 3.46506 6.76387 3.67087 7.27391 3.67148H10.4496C10.9596 3.67087 11.4486 3.46506 11.8093 3.09919C12.1699 2.73331 12.3728 2.23726 12.3734 1.71984M13.3412 31.5148C13.3405 31.5739 13.3515 31.6325 13.3737 31.6871C13.3959 31.7417 13.4287 31.7911 13.4702 31.8326C13.5117 31.874 13.561 31.9064 13.6152 31.928C13.6694 31.9496 13.7273 31.9599 13.7855 31.9582C13.8442 31.9601 13.9027 31.9501 13.9575 31.9286C14.0123 31.9071 14.0623 31.8747 14.1045 31.8332C14.1467 31.7917 14.1803 31.7421 14.2032 31.6872C14.2261 31.6323 14.238 31.5733 14.238 31.5137C14.238 31.4541 14.2261 31.3951 14.2032 31.3402C14.1803 31.2853 14.1467 31.2357 14.1045 31.1942C14.0623 31.1527 14.0123 31.1203 13.9575 31.0988C13.9027 31.0773 13.8442 31.0672 13.7855 31.0692C13.7271 31.0675 13.6691 31.0779 13.6148 31.0996C13.5606 31.1214 13.5112 31.154 13.4697 31.1956C13.4282 31.2372 13.3954 31.2869 13.3733 31.3417C13.3512 31.3965 13.3403 31.4557 13.3412 31.5148ZM13.4538 31.5144C13.4521 31.4697 13.4595 31.425 13.4756 31.3833C13.4916 31.3416 13.5159 31.3037 13.547 31.272C13.5782 31.2403 13.6154 31.2154 13.6564 31.1989C13.6974 31.1824 13.7414 31.1746 13.7855 31.1761C13.8298 31.1749 13.874 31.1828 13.9152 31.1994C13.9565 31.2159 13.9941 31.2407 14.0257 31.2722C14.0573 31.3038 14.0824 31.3415 14.0993 31.3831C14.1163 31.4247 14.1248 31.4694 14.1243 31.5144C14.1258 31.5596 14.1179 31.6046 14.1013 31.6466C14.0847 31.6886 14.0597 31.7266 14.0278 31.7582C13.9959 31.7898 13.9579 31.8144 13.9162 31.8303C13.8745 31.8463 13.83 31.8533 13.7855 31.8508C13.7417 31.8514 13.6983 31.8432 13.6578 31.8265C13.6173 31.8098 13.5805 31.785 13.5496 31.7537C13.5187 31.7223 13.4943 31.685 13.4778 31.6439C13.4614 31.6028 13.4532 31.5587 13.4538 31.5144ZM13.6144 31.3166V31.6971C13.6144 31.7361 13.6289 31.7526 13.6488 31.7526C13.6648 31.7497 13.68 31.7432 13.6933 31.7336C13.7065 31.724 13.7174 31.7115 13.7253 31.6971V31.5676L13.8529 31.7324C13.8573 31.7386 13.863 31.7436 13.8697 31.7472C13.8764 31.7507 13.8838 31.7525 13.8913 31.7526C13.9058 31.7525 13.9198 31.7469 13.9306 31.737C13.9413 31.7271 13.9481 31.7136 13.9497 31.6989C13.9492 31.6872 13.9447 31.676 13.937 31.6672L13.8492 31.5658C13.8684 31.566 13.8873 31.5623 13.905 31.5548C13.9226 31.5473 13.9386 31.5363 13.9519 31.5224C13.9652 31.5085 13.9757 31.492 13.9825 31.4739C13.9894 31.4558 13.9925 31.4365 13.9918 31.4171C13.9918 31.3211 13.9244 31.2638 13.8189 31.2638H13.6651C13.6582 31.2634 13.6512 31.2646 13.6448 31.2672C13.6383 31.2698 13.6325 31.2738 13.6277 31.2789C13.6228 31.284 13.6192 31.29 13.6169 31.2967C13.6146 31.3034 13.6138 31.3105 13.6144 31.3175M13.7253 31.367H13.8108C13.8529 31.367 13.88 31.3854 13.88 31.4263C13.8805 31.4354 13.879 31.4445 13.8756 31.4529C13.8722 31.4614 13.867 31.469 13.8604 31.4751C13.8538 31.4813 13.8459 31.486 13.8373 31.4887C13.8288 31.4914 13.8197 31.4922 13.8108 31.491H13.7248L13.7253 31.367ZM7.79603 28.099H14.8252C14.9304 28.099 15.0347 28.078 15.132 28.0371C15.2292 27.9962 15.3176 27.9363 15.3921 27.8608C15.4665 27.7853 15.5256 27.6956 15.5659 27.5969C15.6062 27.4983 15.6269 27.3925 15.6269 27.2857C15.6269 27.1789 15.6062 27.0731 15.5659 26.9744C15.5256 26.8758 15.4665 26.7861 15.3921 26.7106C15.3176 26.6351 15.2292 26.5751 15.132 26.5343C15.0347 26.4934 14.9304 26.4724 14.8252 26.4724H7.79603C7.5834 26.4724 7.37947 26.5581 7.22912 26.7106C7.07877 26.8631 6.9943 27.07 6.9943 27.2857C6.99424 27.3925 7.01494 27.4983 7.05521 27.597C7.09548 27.6957 7.15453 27.7854 7.22899 27.8609C7.30345 27.9365 7.39185 27.9964 7.48915 28.0372C7.58645 28.0781 7.69073 28.0991 7.79603 28.099Z" fill="#E6AF78"/>
</svg>
